<?xml version="1.0"?>
<svg xmlns="http://www.w3.org/2000/svg" xmlns:xlink="http://www.w3.org/1999/xlink" xmlns:svgjs="http://svgjs.com/svgjs" version="1.1" width="512" height="512" x="0" y="0" viewBox="0 0 400.29254 400" style="enable-background:new 0 0 512 512" xml:space="preserve" class=""><g transform="matrix(6.123233995736766e-17,-1,1,6.123233995736766e-17,2.219764232635498,398.073401927948)"><linearGradient xmlns="http://www.w3.org/2000/svg" id="a"><stop offset=".322" stop-color="#a163f5"/><stop offset=".466" stop-color="#b074ee"/><stop offset=".752" stop-color="#d8a1dd"/><stop offset=".898" stop-color="#efbad3"/></linearGradient><linearGradient xmlns="http://www.w3.org/2000/svg" xmlns:xlink="http://www.w3.org/1999/xlink" id="b" gradientUnits="userSpaceOnUse" x1="166.915068" x2="166.915068" xlink:href="#a" y1="390.54627" y2="-15.48453"/><linearGradient xmlns="http://www.w3.org/2000/svg" xmlns:xlink="http://www.w3.org/1999/xlink" id="c" gradientUnits="userSpaceOnUse" x1="294.071568" x2="294.071568" xlink:href="#a" y1="390.54627" y2="-15.48453"/><linearGradient xmlns="http://www.w3.org/2000/svg" xmlns:xlink="http://www.w3.org/1999/xlink" id="d" gradientUnits="userSpaceOnUse" x1="235.888568" x2="235.888568" xlink:href="#a" y1="390.54627" y2="-15.48453"/><linearGradient xmlns="http://www.w3.org/2000/svg" xmlns:xlink="http://www.w3.org/1999/xlink" id="e" gradientUnits="userSpaceOnUse" x1="363.181068" x2="363.181068" xlink:href="#a" y1="390.54627" y2="-15.48453"/><linearGradient xmlns="http://www.w3.org/2000/svg" xmlns:xlink="http://www.w3.org/1999/xlink" id="f" gradientUnits="userSpaceOnUse" x1="116.618068" x2="116.618068" xlink:href="#a" y1="390.54627" y2="-15.48453"/><path xmlns="http://www.w3.org/2000/svg" d="m285.464844 140.847656 24.898437-59.800781c2.101563-5.101563-.300781-11-5.398437-13.101563-2.800782-1.199218-6-1-8.703125.5l-54.699219 30.601563-46.699219-42.601563c-4.101562-3.699218-10.398437-3.398437-14.101562.601563-2.097657 2.300781-3 5.398437-2.5 8.5l11.300781 64.097656-53.898438 33.101563c-4.699218 2.898437-6.199218 9.101562-3.300781 13.800781 1.601563 2.5 4.199219 4.300781 7.101563 4.699219l49.796875 7-186.199219 190.300781c-4 3.800781-4.097656 10.199219-.199219 14.097656 3.800781 4 10.199219 4.101563 14.101563.203125.097656-.101562.097656-.101562.199218-.203125.097657-.097656.097657-.097656.199219-.199219l186.398438-190.699218 11.101562 51.300781c1.199219 5.398437 6.5 8.800781 11.898438 7.699219 3.101562-.699219 5.601562-2.699219 7-5.601563l27.101562-58.398437 62 6c5.5.5 10.398438-3.5 10.898438-9 .300781-3-.796875-6-2.898438-8.101563zm-29.800782 35.398438c-4.199218-.398438-8.300781 1.898437-10 5.800781l-17.5 37.800781-8.902343-41c-.898438-4.101562-4.199219-7.203125-8.398438-7.800781l-41.199219-5.800781 36-22.101563c3.5-2.097656 5.300782-6.199219 4.597657-10.199219l-7.398438-41.898437 30.398438 27.699219c3.203125 2.898437 7.902343 3.398437 11.601562 1.300781l35.800781-20-16.402343 39.398437c-1.597657 3.800782-.699219 8.101563 2.203125 10.902344l30.199218 29.898438zm0 0" fill="url(#b)" data-original="url(#b)" style=""/><path xmlns="http://www.w3.org/2000/svg" d="m290.863281 234.246094c-3-4.601563-9.199219-5.898438-13.800781-2.898438-4.597656 3-5.898438 9.199219-2.898438 13.796875l23.097657 35.402344c3 4.597656 9.203125 5.898437 13.800781 2.898437 4.601562-3 5.902344-9.199218 2.902344-13.800781zm0 0" fill="url(#c)" data-original="url(#c)" style=""/><path xmlns="http://www.w3.org/2000/svg" d="m235.863281 61.746094c5.5 0 10-4.5 10-10v-41.601563c0-5.5-4.5-10-10-10s-10 4.5-10 10v41.601563c0 5.5 4.5 10 10 10zm0 0" fill="url(#d)" data-original="url(#d)" style=""/><path xmlns="http://www.w3.org/2000/svg" d="m387.761719 103.945312-54.199219 14.199219c-5.300781 1.402344-8.5 6.902344-7.097656 12.203125 1.398437 5.296875 6.898437 8.5 12.199218 7.097656l54.199219-14.199218c5.300781-1.398438 8.5-6.898438 7.101563-12.199219-1.402344-5.300781-6.902344-8.5-12.203125-7.101563zm0 0" fill="url(#e)" data-original="url(#e)" style=""/><path xmlns="http://www.w3.org/2000/svg" d="m94.863281 111.546875 40.101563 6.898437c.597656.101563 1.097656.101563 1.699218.101563 5.5 0 10-4.5 10-10 0-4.902344-3.5-9-8.300781-9.902344l-40.101562-6.898437c-5.398438-.898438-10.597657 2.699218-11.597657 8.199218s2.800782 10.601563 8.199219 11.601563zm0 0" fill="url(#f)" data-original="url(#f)" style=""/></g></svg>
